<?xml version="1.0" encoding="UTF-8" standalone="no"?>
<!-- Created with Inkscape (http://www.inkscape.org/) -->

<svg
   width="50.524441mm"
   height="15.80887mm"
   viewBox="0 0 50.524441 15.80887"
   version="1.1"
   id="svg1"
   sodipodi:docname="favicon.svg"
   inkscape:version="1.3 (0e150ed6c4, 2023-07-21)"
   xmlns:inkscape="http://www.inkscape.org/namespaces/inkscape"
   xmlns:sodipodi="http://sodipodi.sourceforge.net/DTD/sodipodi-0.dtd"
   xmlns="http://www.w3.org/2000/svg"
   xmlns:svg="http://www.w3.org/2000/svg">
  <sodipodi:namedview
     id="namedview1"
     pagecolor="#ffffff"
     bordercolor="#000000"
     borderopacity="0.25"
     inkscape:showpageshadow="2"
     inkscape:pageopacity="0.0"
     inkscape:pagecheckerboard="0"
     inkscape:deskcolor="#d1d1d1"
     inkscape:document-units="mm"
     inkscape:zoom="2.114039"
     inkscape:cx="52.506127"
     inkscape:cy="79.705247"
     inkscape:window-width="1920"
     inkscape:window-height="1017"
     inkscape:window-x="1912"
     inkscape:window-y="-8"
     inkscape:window-maximized="1"
     inkscape:current-layer="layer1" />
  <defs
     id="defs1" />
  <g
     inkscape:label="Layer 1"
     inkscape:groupmode="layer"
     id="layer1"
     transform="translate(-14.482673,-18.705433)">
    <g
       id="g2"
       inkscape:label="LOGO"
       transform="translate(0.61948749,0.17699642)">
      <path
         d="M 23.002345,21.427832 H 17.42404 v 3.88056 h 5.126308 l -2.616126,2.888371 H 17.42404 v 6.140544 H 13.863186 V 19.8236 18.528437 h 1.513378 7.625781 z M 38.282047,34.337307 H 34.401488 L 33.277007,30.82055 h -5.622401 l -1.113456,3.516757 h -3.858511 l 5.754693,-15.80887 h 4.222314 z m -5.820839,-6.250788 -1.697745,-5.31372 C 30.638521,22.375924 30.550327,21.901878 30.49888,21.350662 h -0.08819 c -0.03675,0.463021 -0.128616,0.922368 -0.275608,1.378039 l -1.719793,5.357818 z m 20.935178,6.250788 H 48.898464 L 44.2903,27.469158 c -0.08819,-0.132292 -0.227836,-0.422599 -0.418924,-0.870921 h -0.05512 v 7.73907 H 40.2554 v -15.80887 h 3.560854 v 7.474486 h 0.05512 c 0.08819,-0.205787 0.235186,-0.499768 0.440973,-0.881945 l 4.365629,-6.592541 h 4.244362 l -5.512158,7.540632 z m 10.991242,0 h -9.480912 v -15.80887 h 9.11711 v 2.899395 H 58.46757 v 3.516757 h 5.170405 L 61.085891,27.83296 H 58.46757 v 3.615976 h 5.920058 z"
         id="text1"
         style="font-weight:bold;font-size:22.5778px;font-family:'Leelawadee UI';-inkscape-font-specification:'Leelawadee UI, Bold';text-align:center;letter-spacing:0px;word-spacing:0px;text-anchor:middle;fill:#000000;stroke-width:0.264583;stroke-linecap:round;stroke-linejoin:round"
         inkscape:label="FAKE"
         aria-label="FAKE"
         sodipodi:nodetypes="cccccccccccccccccccccccccccccccccccccccccccccccccccccccccc" />
    </g>
  </g>
</svg>
