<?xml version="1.0" encoding="UTF-8" standalone="no"?>
<!-- Created with Inkscape (http://www.inkscape.org/) -->

<svg
   width="50.524441mm"
   height="20.972891mm"
   viewBox="0 0 50.524441 20.972891"
   version="1.1"
   id="svg1"
   sodipodi:docname="white-logo.svg"
   inkscape:version="1.3 (0e150ed6c4, 2023-07-21)"
   xmlns:inkscape="http://www.inkscape.org/namespaces/inkscape"
   xmlns:sodipodi="http://sodipodi.sourceforge.net/DTD/sodipodi-0.dtd"
   xmlns="http://www.w3.org/2000/svg"
   xmlns:svg="http://www.w3.org/2000/svg">
  <sodipodi:namedview
     id="namedview1"
     pagecolor="#000000"
     bordercolor="#000000"
     borderopacity="0.25"
     inkscape:showpageshadow="2"
     inkscape:pageopacity="0.0"
     inkscape:pagecheckerboard="0"
     inkscape:deskcolor="#d1d1d1"
     inkscape:document-units="mm"
     inkscape:zoom="2.9897026"
     inkscape:cx="48.499807"
     inkscape:cy="90.142745"
     inkscape:window-width="1920"
     inkscape:window-height="1017"
     inkscape:window-x="1912"
     inkscape:window-y="-8"
     inkscape:window-maximized="1"
     inkscape:current-layer="layer1" />
  <defs
     id="defs1" />
  <g
     inkscape:label="Layer 1"
     inkscape:groupmode="layer"
     id="layer1"
     transform="translate(-14.482673,-18.705433)">
    <g
       id="g2"
       inkscape:label="LOGO"
       transform="translate(0.61948749,0.17699642)">
      <path
         d="M 23.002345,21.427832 H 17.42404 v 3.88056 h 5.126308 l -2.616126,2.888371 H 17.42404 v 6.140544 H 13.863186 V 19.8236 18.528437 h 1.513378 7.625781 z M 38.282047,34.337307 H 34.401488 L 33.277007,30.82055 h -5.622401 l -1.113456,3.516757 h -3.858511 l 5.754693,-15.80887 h 4.222314 z m -5.820839,-6.250788 -1.697745,-5.31372 C 30.638521,22.375924 30.550327,21.901878 30.49888,21.350662 h -0.08819 c -0.03675,0.463021 -0.128616,0.922368 -0.275608,1.378039 l -1.719793,5.357818 z m 20.935178,6.250788 H 48.898464 L 44.2903,27.469158 c -0.08819,-0.132292 -0.227836,-0.422599 -0.418924,-0.870921 h -0.05512 v 7.73907 H 40.2554 v -15.80887 h 3.560854 v 7.474486 h 0.05512 c 0.08819,-0.205787 0.235186,-0.499768 0.440973,-0.881945 l 4.365629,-6.592541 h 4.244362 l -5.512158,7.540632 z m 10.991242,0 h -9.480912 v -15.80887 h 9.11711 v 2.899395 H 58.46757 v 3.516757 h 5.170405 L 61.085891,27.83296 H 58.46757 v 3.615976 h 5.920058 z"
         id="text1"
         style="font-weight:bold;font-size:22.5778px;font-family:'Leelawadee UI';-inkscape-font-specification:'Leelawadee UI, Bold';text-align:center;letter-spacing:0px;word-spacing:0px;text-anchor:middle;fill:#ffffff;stroke-width:0.264583;stroke-linecap:round;stroke-linejoin:round"
         inkscape:label="FAKE"
         aria-label="FAKE"
         sodipodi:nodetypes="cccccccccccccccccccccccccccccccccccccccccccccccccccccccccc" />
      <path
         d="m 17.561205,39.434528 h -0.371404 l -0.820298,-2.840312 q -0.02939,-0.101535 -0.04809,-0.195054 -0.01603,-0.09352 -0.0187,-0.181695 h -0.01069 q -0.01069,0.154975 -0.07749,0.371405 l -0.849689,2.845656 h -0.371405 l -1.130246,-3.831615 h 0.395452 l 0.844345,3.005974 q 0.02939,0.09886 0.04542,0.189711 0.0187,0.08817 0.02939,0.171006 h 0.01069 q 0.01603,-0.120239 0.08818,-0.360717 l 0.897784,-3.005974 h 0.280558 l 0.841673,3.016662 q 0.02405,0.09085 0.04275,0.179023 0.0187,0.0855 0.02939,0.168334 h 0.01069 q 0.0053,-0.05344 0.02138,-0.120239 0.01603,-0.0668 0.03741,-0.14963 l 0.839001,-3.09415 h 0.387437 z m 2.057423,0 h -0.355373 v -3.831615 h 0.355373 z m 3.62053,0 -2.126894,-3.075446 q -0.04008,-0.05878 -0.08016,-0.120239 -0.03741,-0.06146 -0.06145,-0.120239 h -0.01336 q 0.0053,0.0481 0.008,0.133599 0.0053,0.0855 0.0053,0.213758 v 2.968567 h -0.355373 v -3.831615 h 0.392781 l 2.092158,3.038038 q 0.0481,0.07214 0.0855,0.136271 0.04008,0.06145 0.07214,0.114895 h 0.01336 q -0.01069,-0.08817 -0.01603,-0.197726 -0.0053,-0.109551 -0.0053,-0.24315 v -2.848328 h 0.358045 v 3.831615 z m 1.362708,0 v -3.831615 h 1.007335 q 0.983288,0 1.48562,0.47294 0.502332,0.470268 0.502332,1.3921 0,0.443548 -0.141615,0.806937 -0.138943,0.363389 -0.403469,0.622571 -0.264526,0.25651 -0.641274,0.398125 -0.376749,0.138942 -0.849689,0.138942 z m 0.355373,-3.505634 v 3.182325 h 0.587835 q 0.395453,0 0.705402,-0.106879 0.312621,-0.106879 0.529051,-0.312621 0.216431,-0.208415 0.328654,-0.51302 0.114895,-0.304606 0.114895,-0.700058 0,-1.549747 -1.637922,-1.549747 z m 4.967207,3.572434 q -0.414157,0 -0.745482,-0.149631 -0.331325,-0.152303 -0.563787,-0.414156 -0.22979,-0.261854 -0.355373,-0.614555 -0.122911,-0.355373 -0.122911,-0.761514 0,-0.448892 0.122911,-0.820297 0.125583,-0.374077 0.363389,-0.638603 0.237806,-0.267197 0.582491,-0.414156 0.344685,-0.149631 0.785561,-0.149631 0.406141,0 0.72945,0.146959 0.323309,0.144287 0.550427,0.403469 0.227118,0.256509 0.347357,0.60921 0.122911,0.352701 0.122911,0.766858 0,0.435532 -0.120239,0.809609 -0.117567,0.371405 -0.350029,0.643947 -0.22979,0.272541 -0.569131,0.427516 -0.336669,0.154975 -0.777545,0.154975 z m 0.02939,-3.639234 q -0.347357,0 -0.617226,0.133599 -0.267198,0.130927 -0.451565,0.358045 -0.184366,0.224446 -0.280557,0.529052 -0.09352,0.301933 -0.09619,0.643946 -0.0027,0.325982 0.08283,0.625243 0.08817,0.29659 0.261854,0.52638 0.17635,0.227118 0.443548,0.363389 0.267198,0.136271 0.625243,0.136271 0.358045,0 0.627914,-0.122911 0.272542,-0.125583 0.454237,-0.344686 0.181694,-0.221774 0.272541,-0.526379 0.09352,-0.304606 0.09352,-0.665323 0,-0.336669 -0.08283,-0.638602 -0.08016,-0.301934 -0.253838,-0.52638 -0.171006,-0.227118 -0.438204,-0.358045 -0.267198,-0.133599 -0.641275,-0.133599 z m 5.856976,3.572434 h -0.371405 l -0.820297,-2.840312 q -0.02939,-0.101535 -0.0481,-0.195054 -0.01603,-0.09352 -0.0187,-0.181695 h -0.01069 q -0.01069,0.154975 -0.07749,0.371405 l -0.849689,2.845656 h -0.371405 l -1.130246,-3.831615 h 0.395452 l 0.844345,3.005974 q 0.02939,0.09886 0.04542,0.189711 0.0187,0.08817 0.02939,0.171006 h 0.01069 q 0.01603,-0.120239 0.08817,-0.360717 l 0.897784,-3.005974 h 0.280558 l 0.841673,3.016662 q 0.02405,0.09085 0.04275,0.179023 0.0187,0.0855 0.02939,0.168334 h 0.01069 q 0.0053,-0.05344 0.02138,-0.120239 0.01603,-0.0668 0.03741,-0.14963 l 0.839001,-3.09415 h 0.387436 z m 1.552418,-0.561115 q 0.09619,0.07214 0.211087,0.130927 0.117567,0.05611 0.237806,0.09619 0.122911,0.03741 0.245822,0.05878 0.122911,0.0187 0.235134,0.0187 0.435532,0 0.651962,-0.168335 0.21643,-0.168335 0.21643,-0.483628 0,-0.152303 -0.05077,-0.264526 -0.05077,-0.114895 -0.157647,-0.213758 -0.106879,-0.09886 -0.26987,-0.195054 -0.16299,-0.09886 -0.384764,-0.221774 -0.245822,-0.133599 -0.422173,-0.251166 -0.173678,-0.120239 -0.285901,-0.24315 -0.109552,-0.125583 -0.162991,-0.26987 -0.05077,-0.144287 -0.05077,-0.328653 0,-0.232462 0.09886,-0.416829 0.09886,-0.184366 0.267197,-0.312621 0.168335,-0.130927 0.392781,-0.200398 0.227118,-0.06947 0.483628,-0.06947 0.451564,0 0.75617,0.125583 v 0.392781 q -0.339342,-0.195055 -0.79625,-0.195055 -0.171006,0 -0.323309,0.04275 -0.149631,0.04008 -0.264526,0.120239 -0.112223,0.08016 -0.179022,0.200398 -0.06413,0.117567 -0.06413,0.275214 0,0.149631 0.04275,0.259182 0.04542,0.106879 0.141615,0.20307 0.09886,0.09619 0.25651,0.192383 0.160318,0.09352 0.390108,0.21643 0.240478,0.128255 0.419501,0.251166 0.179022,0.120239 0.296589,0.253837 0.120239,0.130927 0.179023,0.280558 0.05878,0.146959 0.05878,0.328653 0,0.251166 -0.09352,0.443549 -0.09352,0.18971 -0.261854,0.315293 -0.168334,0.125583 -0.400796,0.18971 -0.232462,0.06413 -0.510348,0.06413 -0.09085,0 -0.21643,-0.01603 -0.125583,-0.01336 -0.253838,-0.04275 -0.128255,-0.02672 -0.245822,-0.06413 -0.114895,-0.04008 -0.187039,-0.0855 z m 7.246402,0.561115 -0.464924,-0.462252 q -0.526379,0.529052 -1.266517,0.529052 -0.277886,0 -0.502332,-0.07482 -0.221774,-0.07749 -0.379421,-0.213758 -0.154974,-0.138943 -0.237806,-0.328653 -0.08283,-0.18971 -0.08283,-0.414157 0,-0.705402 0.879081,-1.127574 -0.422173,-0.518364 -0.422173,-0.908472 0,-0.192383 0.07214,-0.355373 0.07214,-0.162991 0.20307,-0.28323 0.130927,-0.120239 0.307277,-0.187038 0.179023,-0.06947 0.392781,-0.06947 0.197726,0 0.358045,0.05878 0.160319,0.05878 0.272542,0.16299 0.112223,0.104207 0.173678,0.248494 0.06146,0.144287 0.06146,0.315294 0,0.181694 -0.0481,0.331325 -0.04809,0.146959 -0.154975,0.277885 -0.106879,0.128255 -0.277885,0.24315 -0.168335,0.114895 -0.411485,0.22979 0.240478,0.253838 0.510348,0.523708 0.272542,0.26987 0.579819,0.569131 0.07214,-0.106879 0.130927,-0.235134 0.06145,-0.130927 0.104207,-0.272542 0.04275,-0.141614 0.0668,-0.288573 0.02405,-0.149631 0.02939,-0.293918 h 0.328653 q -0.01336,0.724106 -0.451564,1.314613 0.144287,0.141615 0.32331,0.317966 0.179022,0.173678 0.403468,0.395452 z M 42.87552,37.195411 q 0.20307,-0.09352 0.344685,-0.187038 0.144287,-0.09619 0.235134,-0.197727 0.09085,-0.101535 0.133599,-0.213758 0.04275,-0.112223 0.04275,-0.237806 0,-0.117567 -0.04275,-0.213758 -0.04008,-0.09886 -0.112223,-0.168335 -0.07214,-0.07214 -0.168335,-0.109551 -0.09619,-0.04008 -0.208414,-0.04008 -0.141615,0 -0.25651,0.04542 -0.114895,0.04542 -0.195054,0.128255 -0.08016,0.08016 -0.125583,0.192383 -0.04275,0.112223 -0.04275,0.24315 0,0.315293 0.395453,0.758841 z m 1.063447,1.563107 q -0.317965,-0.312621 -0.609211,-0.606539 -0.288573,-0.296589 -0.563787,-0.587835 -0.384765,0.181695 -0.561115,0.395453 -0.176351,0.211086 -0.176351,0.491644 0,0.168334 0.06146,0.307277 0.06413,0.138943 0.17635,0.237806 0.112223,0.09619 0.26987,0.152303 0.160318,0.05344 0.352701,0.05344 0.603867,0 1.050087,-0.443548 z m 3.222403,0.67601 v -3.831615 h 1.007336 q 0.983288,0 1.485619,0.47294 0.502332,0.470268 0.502332,1.3921 0,0.443548 -0.141615,0.806937 -0.138943,0.363389 -0.403468,0.622571 -0.264526,0.25651 -0.641275,0.398125 -0.376749,0.138942 -0.849689,0.138942 z m 0.355373,-3.505634 v 3.182325 h 0.587835 q 0.395453,0 0.705402,-0.106879 0.312622,-0.106879 0.529052,-0.312621 0.21643,-0.208415 0.328653,-0.51302 0.114895,-0.304606 0.114895,-0.700058 0,-1.549747 -1.637922,-1.549747 z m 4.967208,3.572434 q -0.414156,0 -0.745482,-0.149631 -0.331325,-0.152303 -0.563787,-0.414156 -0.22979,-0.261854 -0.355373,-0.614555 -0.122911,-0.355373 -0.122911,-0.761514 0,-0.448892 0.122911,-0.820297 0.125583,-0.374077 0.363389,-0.638603 0.237806,-0.267197 0.582491,-0.414156 0.344685,-0.149631 0.785562,-0.149631 0.40614,0 0.729449,0.146959 0.32331,0.144287 0.550428,0.403469 0.227118,0.256509 0.347357,0.60921 0.122911,0.352701 0.122911,0.766858 0,0.435532 -0.120239,0.809609 -0.117567,0.371405 -0.350029,0.643947 -0.22979,0.272541 -0.569131,0.427516 -0.33667,0.154975 -0.777546,0.154975 z m 0.02939,-3.639234 q -0.347357,0 -0.617227,0.133599 -0.267198,0.130927 -0.451564,0.358045 -0.184367,0.224446 -0.280558,0.529052 -0.09352,0.301933 -0.09619,0.643946 -0.0027,0.325982 0.08283,0.625243 0.08818,0.29659 0.261854,0.52638 0.176351,0.227118 0.443548,0.363389 0.267198,0.136271 0.625243,0.136271 0.358045,0 0.627915,-0.122911 0.272542,-0.125583 0.454236,-0.344686 0.181695,-0.221774 0.272542,-0.526379 0.09352,-0.304606 0.09352,-0.665323 0,-0.336669 -0.08283,-0.638602 -0.08016,-0.301934 -0.253838,-0.52638 -0.171007,-0.227118 -0.438204,-0.358045 -0.267198,-0.133599 -0.641275,-0.133599 z m 4.114846,3.639234 q -0.414157,0 -0.745482,-0.149631 -0.331325,-0.152303 -0.563787,-0.414156 -0.22979,-0.261854 -0.355373,-0.614555 -0.122911,-0.355373 -0.122911,-0.761514 0,-0.448892 0.122911,-0.820297 0.125583,-0.374077 0.363389,-0.638603 0.237806,-0.267197 0.582491,-0.414156 0.344685,-0.149631 0.785561,-0.149631 0.406141,0 0.72945,0.146959 0.323309,0.144287 0.550427,0.403469 0.227118,0.256509 0.347357,0.60921 0.122911,0.352701 0.122911,0.766858 0,0.435532 -0.120239,0.809609 -0.117567,0.371405 -0.350029,0.643947 -0.22979,0.272541 -0.569131,0.427516 -0.336669,0.154975 -0.777545,0.154975 z m 0.02939,-3.639234 q -0.347357,0 -0.617226,0.133599 -0.267198,0.130927 -0.451565,0.358045 -0.184366,0.224446 -0.280557,0.529052 -0.09352,0.301933 -0.09619,0.643946 -0.0027,0.325982 0.08283,0.625243 0.08817,0.29659 0.261854,0.52638 0.17635,0.227118 0.443548,0.363389 0.267198,0.136271 0.625243,0.136271 0.358045,0 0.627914,-0.122911 0.272542,-0.125583 0.454237,-0.344686 0.181694,-0.221774 0.272541,-0.526379 0.09352,-0.304606 0.09352,-0.665323 0,-0.336669 -0.08283,-0.638602 -0.08016,-0.301934 -0.253838,-0.52638 -0.171006,-0.227118 -0.438204,-0.358045 -0.267198,-0.133599 -0.641275,-0.133599 z m 4.641226,3.572434 -0.577147,-1.098182 q -0.0855,-0.162991 -0.165663,-0.272542 -0.08016,-0.109551 -0.165663,-0.173679 -0.0855,-0.0668 -0.184366,-0.09352 -0.09619,-0.02939 -0.21643,-0.02939 h -0.422173 v 1.667314 h -0.355373 v -3.831615 h 1.103527 q 0.21643,0 0.416829,0.06413 0.20307,0.06413 0.360716,0.18971 0.157647,0.125583 0.251166,0.315294 0.09619,0.18971 0.09619,0.440876 0,0.20307 -0.06146,0.374077 -0.06146,0.171007 -0.17635,0.304605 -0.112223,0.130927 -0.275214,0.224447 -0.160319,0.09085 -0.363389,0.13627 v 0.01069 q 0.07749,0.03206 0.141615,0.08283 0.06413,0.05077 0.122911,0.122911 0.06145,0.07214 0.120239,0.165662 0.05878,0.09352 0.122911,0.213758 l 0.643946,1.186358 z m -1.731442,-3.505634 v 1.515011 h 0.635931 q 0.192382,0 0.352701,-0.05611 0.160319,-0.05611 0.272542,-0.160319 0.114895,-0.104207 0.17635,-0.251166 0.06413,-0.146959 0.06413,-0.331325 0,-0.333997 -0.21643,-0.523708 -0.213759,-0.192382 -0.619899,-0.192382 z m 2.650602,2.944519 q 0.09619,0.07214 0.211086,0.130927 0.117567,0.05611 0.237806,0.09619 0.122911,0.03741 0.245822,0.05878 0.122911,0.0187 0.235134,0.0187 0.435532,0 0.651963,-0.168335 0.21643,-0.168335 0.21643,-0.483628 0,-0.152303 -0.05077,-0.264526 -0.05077,-0.114895 -0.157646,-0.213758 -0.10688,-0.09886 -0.26987,-0.195054 -0.162991,-0.09886 -0.384765,-0.221774 -0.245822,-0.133599 -0.422172,-0.251166 -0.173679,-0.120239 -0.285902,-0.24315 -0.109551,-0.125583 -0.162991,-0.26987 -0.05077,-0.144287 -0.05077,-0.328653 0,-0.232462 0.09886,-0.416829 0.09886,-0.184366 0.267198,-0.312621 0.168334,-0.130927 0.39278,-0.200398 0.227118,-0.06947 0.483628,-0.06947 0.451565,0 0.75617,0.125583 v 0.392781 q -0.339341,-0.195055 -0.796249,-0.195055 -0.171007,0 -0.32331,0.04275 -0.14963,0.04008 -0.264525,0.120239 -0.112223,0.08016 -0.179023,0.200398 -0.06413,0.117567 -0.06413,0.275214 0,0.149631 0.04275,0.259182 0.04542,0.106879 0.141615,0.20307 0.09886,0.09619 0.25651,0.192383 0.160319,0.09352 0.390109,0.21643 0.240478,0.128255 0.4195,0.251166 0.179023,0.120239 0.29659,0.253837 0.120239,0.130927 0.179022,0.280558 0.05878,0.146959 0.05878,0.328653 0,0.251166 -0.09352,0.443549 -0.09352,0.18971 -0.261853,0.315293 -0.168335,0.125583 -0.400797,0.18971 -0.232462,0.06413 -0.510348,0.06413 -0.09085,0 -0.21643,-0.01603 -0.125583,-0.01336 -0.253838,-0.04275 -0.128255,-0.02672 -0.245822,-0.06413 -0.114895,-0.04008 -0.187038,-0.0855 z"
         id="text2"
         style="font-weight:300;font-size:5.47221px;font-family:'Leelawadee UI';-inkscape-font-specification:'Leelawadee UI, Light';text-align:center;letter-spacing:0px;word-spacing:0px;text-anchor:middle;fill:#ffffff;stroke-width:0.0641272;stroke-linecap:round;stroke-linejoin:round"
         inkscape:label="WINDOWS_AND_DOORS"
         aria-label="WINDOWS &amp; DOORS" />
    </g>
  </g>
</svg>
